<svg width="45" height="45" viewBox="0 0 45 45" fill="none" xmlns="http://www.w3.org/2000/svg">
<circle cx="22.5" cy="22.5" r="22.5" fill="#C4C4C4"/>
<path d="M21.9537 14.92C23.6177 14.92 24.9537 15.288 25.9617 16.024C26.9857 16.744 27.4977 17.76 27.4977 19.072C27.4977 20.432 27.0817 21.48 26.2497 22.216C25.4177 22.952 24.3217 23.392 22.9617 23.536L22.8897 25.96H20.4417L20.3937 22.336C21.9617 22.144 23.0817 21.824 23.7537 21.376C24.4257 20.912 24.7617 20.264 24.7617 19.432C24.7617 18.728 24.5057 18.176 23.9937 17.776C23.4977 17.376 22.7617 17.176 21.7857 17.176C20.8257 17.176 20.0497 17.44 19.4577 17.968C18.8657 18.496 18.5217 19.232 18.4257 20.176L16.0497 19.048C16.3057 17.8 16.9377 16.8 17.9457 16.048C18.9697 15.296 20.3057 14.92 21.9537 14.92ZM21.6657 27.808C22.2097 27.808 22.6417 27.968 22.9617 28.288C23.2817 28.592 23.4417 29 23.4417 29.512C23.4417 30.04 23.2817 30.456 22.9617 30.76C22.6417 31.064 22.2097 31.216 21.6657 31.216C21.1057 31.216 20.6657 31.064 20.3457 30.76C20.0257 30.456 19.8657 30.04 19.8657 29.512C19.8657 29 20.0257 28.592 20.3457 28.288C20.6817 27.968 21.1217 27.808 21.6657 27.808Z" fill="#FFFFFA"/>
</svg>
