<svg width="47" height="47" viewBox="0 0 47 47" fill="none" xmlns="http://www.w3.org/2000/svg">
<g clip-path="url(#clip0)">
<path d="M25.615 39.6579H6.442C2.89 39.6579 0 36.7689 0 33.2169C0 29.7149 2.81 26.8559 6.294 26.7769C7.534 22.4739 11.454 19.5029 15.964 19.5029C19.702 19.5029 23.068 21.5289 24.833 24.8139C25.112 24.7829 25.367 24.7679 25.614 24.7679C29.719 24.7679 33.06 28.1069 33.06 32.2109C33.061 36.3169 29.721 39.6579 25.615 39.6579ZM6.442 27.7759C3.442 27.7759 1 30.2169 1 33.2169C1 36.2169 3.441 38.6569 6.442 38.6569H25.615C29.169 38.6569 32.061 35.7649 32.061 32.2109C32.061 28.6579 29.169 25.7679 25.615 25.7679C25.316 25.7679 25.001 25.7939 24.624 25.8509C24.409 25.8819 24.198 25.7729 24.102 25.5779C22.558 22.4489 19.439 20.5039 15.964 20.5039C11.78 20.5039 8.16 23.3429 7.16 27.4079C7.104 27.6359 6.901 27.7769 6.662 27.7879L6.442 27.7759Z" fill="#DD4F3C" fill-opacity="0.75" stroke="#DD4F3C" stroke-opacity="0.75" stroke-width="0.5"/>
<path d="M25.6149 39.6578C25.3389 39.6578 25.1149 39.4338 25.1149 39.1578C25.1149 38.8818 25.3389 38.6578 25.6149 38.6578C29.1689 38.6578 32.0609 35.7658 32.0609 32.2118C32.0609 28.6588 29.1689 25.7688 25.6149 25.7688C23.7519 25.7688 21.9819 26.5738 20.7579 27.9768C20.5759 28.1848 20.2609 28.2058 20.0519 28.0248C19.8439 27.8428 19.8229 27.5268 20.0039 27.3188C21.4179 25.6978 23.4629 24.7688 25.6149 24.7688C29.7199 24.7688 33.0609 28.1078 33.0609 32.2118C33.0609 36.3168 29.7209 39.6578 25.6149 39.6578Z" fill="#DD4F3C" fill-opacity="0.75" stroke="#DD4F3C" stroke-opacity="0.75" stroke-width="0.5"/>
<path d="M36.0441 29.8089C35.9161 29.8089 35.7881 29.7599 35.6901 29.6619C35.4951 29.4659 35.4961 29.1489 35.6911 28.9539C37.1821 27.4699 38.0031 25.4939 38.0031 23.3899C38.0031 19.0599 34.4811 15.5369 30.1501 15.5369C27.8721 15.5369 25.7081 16.5259 24.2131 18.2499C24.0311 18.4579 23.7161 18.4809 23.5071 18.2999C23.2991 18.1189 23.2761 17.8029 23.4571 17.5939C25.1421 15.6509 27.5821 14.5359 30.1501 14.5359C35.0311 14.5359 39.0031 18.5069 39.0031 23.3889C39.0031 25.7609 38.0781 27.9889 36.3981 29.6619C36.2991 29.7609 36.1711 29.8089 36.0441 29.8089Z" fill="#DD4F3C" fill-opacity="0.75" stroke="#DD4F3C" stroke-opacity="0.75" stroke-width="0.5"/>
<path d="M30.1501 11.6949C29.8741 11.6949 29.6501 11.4709 29.6501 11.1949V7.44189C29.6501 7.16589 29.8741 6.94189 30.1501 6.94189C30.4261 6.94189 30.6501 7.16589 30.6501 7.44189V11.1949C30.6501 11.4709 30.4261 11.6949 30.1501 11.6949Z" fill="#DD4F3C" fill-opacity="0.75" stroke="#DD4F3C" stroke-opacity="0.75" stroke-width="0.5"/>
<path d="M46.1002 23.8899H42.3472C42.0712 23.8899 41.8472 23.6659 41.8472 23.3899C41.8472 23.1139 42.0712 22.8899 42.3472 22.8899H46.1002C46.3762 22.8899 46.6002 23.1139 46.6002 23.3899C46.6002 23.6659 46.3762 23.8899 46.1002 23.8899Z" fill="#DD4F3C" fill-opacity="0.75" stroke="#DD4F3C" stroke-opacity="0.75" stroke-width="0.5"/>
<path d="M38.7742 15.2658C38.6462 15.2658 38.5182 15.2168 38.4202 15.1198C38.2252 14.9248 38.2252 14.6078 38.4202 14.4128L41.0742 11.7598C41.2692 11.5648 41.5862 11.5648 41.7812 11.7598C41.9762 11.9548 41.9762 12.2718 41.7812 12.4668L39.1272 15.1198C39.0302 15.2168 38.9022 15.2658 38.7742 15.2658Z" fill="#DD4F3C" fill-opacity="0.75" stroke="#DD4F3C" stroke-opacity="0.75" stroke-width="0.5"/>
<path d="M41.4272 35.1679C41.2992 35.1679 41.1712 35.1189 41.0732 35.0219L38.4202 32.3699C38.2252 32.1749 38.2252 31.8579 38.4202 31.6629C38.6152 31.4679 38.9322 31.4679 39.1272 31.6629L41.7802 34.3149C41.9752 34.5099 41.9752 34.8269 41.7802 35.0219C41.6832 35.1199 41.5552 35.1679 41.4272 35.1679Z" fill="#DD4F3C" fill-opacity="0.75" stroke="#DD4F3C" stroke-opacity="0.75" stroke-width="0.5"/>
<path d="M21.5241 15.2658C21.3961 15.2658 21.2681 15.2168 21.1701 15.1198L18.5181 12.4668C18.3231 12.2718 18.3231 11.9548 18.5181 11.7598C18.7131 11.5648 19.0301 11.5648 19.2251 11.7598L21.8771 14.4128C22.0721 14.6078 22.0721 14.9248 21.8771 15.1198C21.7801 15.2168 21.6521 15.2658 21.5241 15.2658Z" fill="#DD4F3C" fill-opacity="0.75" stroke="#DD4F3C" stroke-opacity="0.75" stroke-width="0.5"/>
</g>
<defs>
<clipPath id="clip0">
<rect width="46.6" height="46.6" fill="white"/>
</clipPath>
</defs>
</svg>
