<svg width="24" height="20" viewBox="0 0 24 20" fill="none" xmlns="http://www.w3.org/2000/svg">
<path d="M23.194 18.98L17.5935 14.1197C19.0958 12.6208 20.0054 10.6652 20.0054 8.52772C20.0054 3.82262 15.5955 0 10.179 0C4.75732 0 0.352539 3.82705 0.352539 8.52772C0.352539 13.2284 4.76242 17.0554 10.179 17.0554C12.642 17.0554 14.8955 16.2661 16.6226 14.9623L22.2231 19.8226C22.356 19.9379 22.5348 20 22.7086 20C22.8823 20 23.0612 19.9424 23.194 19.8226C23.4597 19.592 23.4597 19.2106 23.194 18.98ZM1.72712 8.52772C1.72712 4.48337 5.5187 1.19734 10.1739 1.19734C14.8341 1.19734 18.6206 4.4878 18.6206 8.52772C18.6206 12.5676 14.8341 15.8625 10.1739 15.8625C5.5187 15.8625 1.72712 12.5721 1.72712 8.52772Z" fill="#223843" fill-opacity="0.5"/>
</svg>
