<svg width="23" height="23" viewBox="0 0 23 23" fill="none" xmlns="http://www.w3.org/2000/svg">
<g clip-path="url(#clip0)">
<path d="M15.5661 16.3466C15.3618 16.5509 15.186 16.7754 15.0339 17.0129L8.29708 12.9236C8.47524 12.4776 8.57622 11.9926 8.57622 11.4838C8.57622 10.975 8.47524 10.4901 8.29747 10.0441L15.0359 5.98596C15.7279 7.0729 16.9411 7.79727 18.3228 7.79727C20.4725 7.79727 22.2214 6.04834 22.2214 3.89864C22.2214 1.74893 20.4725 0 18.3228 0C16.1731 0 14.4242 1.74893 14.4242 3.89864C14.4242 4.3883 14.5189 4.85536 14.6842 5.28733L7.93684 9.35088C7.23977 8.28889 6.03977 7.58518 4.67719 7.58518C2.52749 7.58518 0.778557 9.33411 0.778557 11.4838C0.778557 13.6335 2.52749 15.3825 4.67719 15.3825C6.03977 15.3825 7.23938 14.6788 7.93645 13.6168L14.6827 17.7115C14.515 18.1505 14.4238 18.6195 14.4238 19.1033C14.4238 20.1446 14.8292 21.124 15.5657 21.86C16.3255 22.6199 17.324 23 18.3224 23C19.3209 23 20.3193 22.6199 21.0791 21.86C21.8156 21.1236 22.2211 20.1446 22.2211 19.1033C22.2211 18.062 21.8156 17.0827 21.0791 16.3466C19.5591 14.8261 17.0862 14.8261 15.5661 16.3466ZM18.3228 0.779727C20.0425 0.779727 21.4417 2.17895 21.4417 3.89864C21.4417 5.61832 20.0425 7.01754 18.3228 7.01754C16.6031 7.01754 15.2039 5.61832 15.2039 3.89864C15.2039 2.17895 16.6027 0.779727 18.3228 0.779727ZM4.67758 14.6027C2.95789 14.6027 1.55867 13.2035 1.55867 11.4838C1.55867 9.76413 2.95789 8.36491 4.67758 8.36491C6.39727 8.36491 7.79649 9.76413 7.79649 11.4838C7.79649 13.2035 6.39727 14.6027 4.67758 14.6027ZM20.5279 21.3088C19.3119 22.5248 17.3333 22.5248 16.1173 21.3088C15.5283 20.7197 15.2039 19.9361 15.2039 19.1033C15.2039 18.2706 15.5283 17.4869 16.1173 16.8979C16.7255 16.2897 17.524 15.986 18.3228 15.986C19.1216 15.986 19.9201 16.2897 20.5283 16.8979C21.1173 17.4869 21.4417 18.2706 21.4417 19.1033C21.4417 19.9361 21.1173 20.7197 20.5279 21.3088Z" fill="#223843" fill-opacity="0.5"/>
<path d="M15.46 16.2405C15.2828 16.4177 15.1267 16.6091 14.9886 16.8099M15.46 16.2405L15.5661 16.3466M15.46 16.2405C15.46 16.2405 15.46 16.2405 15.46 16.2405L15.5661 16.3466M15.46 16.2405C17.0387 14.6615 19.6065 14.6615 21.1852 16.2405C21.1852 16.2405 21.1852 16.2405 21.1852 16.2405M14.9886 16.8099L15.5657 21.86C16.3255 22.6199 17.324 23 18.3224 23C19.3209 23 20.3193 22.6199 21.0791 21.86C21.8156 21.1236 22.2211 20.1446 22.2211 19.1033C22.2211 18.062 21.8156 17.0827 21.0791 16.3466M14.9886 16.8099L8.4818 12.8602C8.63834 12.4306 8.72622 11.9677 8.72622 11.4838C8.72622 11.0001 8.63839 10.5374 8.48227 10.1079L14.9902 6.18859C15.7197 7.24852 16.9398 7.94727 18.3228 7.94727C20.5554 7.94727 22.3714 6.13119 22.3714 3.89864C22.3714 1.66609 20.5554 -0.15 18.3228 -0.15C16.0903 -0.15 14.2742 1.66609 14.2742 3.89864C14.2742 4.36335 14.3562 4.80805 14.5009 5.22265L7.98087 9.14926C7.24751 8.11394 6.04099 7.43518 4.67719 7.43518C2.44464 7.43518 0.628557 9.25127 0.628557 11.4838C0.628557 13.7164 2.44464 15.5325 4.67719 15.5325C6.04083 15.5325 7.24684 14.8539 7.98019 13.8188L14.4995 17.7758C14.353 18.197 14.2738 18.6436 14.2738 19.1033C14.2738 20.1844 14.695 21.2019 15.4596 21.9661M14.9886 16.8099L15.4596 21.9661M15.5661 16.3466C15.3618 16.5509 15.186 16.7754 15.0339 17.0129L21.0791 16.3466M15.5661 16.3466C17.0862 14.8261 19.5591 14.8261 21.0791 16.3466M21.1852 16.2405L21.0791 16.3466M21.1852 16.2405C21.9498 17.0048 22.3711 18.0222 22.3711 19.1033C22.3711 20.1844 21.9498 21.2015 21.1852 21.9661C20.396 22.7553 19.3589 23.15 18.3224 23.15C17.286 23.15 16.2488 22.7553 15.4597 21.9661M21.1852 16.2405L15.4597 21.9661M15.4597 21.9661C15.4596 21.9661 15.4596 21.9661 15.4596 21.9661M15.4597 21.9661L15.4596 21.9661M20.4218 21.2027L20.4218 21.2027C19.2644 22.3601 17.3808 22.3601 16.2234 21.2027C15.6625 20.6418 15.3539 19.8963 15.3539 19.1033C15.3539 18.3103 15.6625 17.5649 16.2234 17.0039C16.8022 16.4251 17.562 16.136 18.3228 16.136C19.0836 16.136 19.8434 16.4251 20.4222 17.0039C20.9831 17.5649 21.2917 18.3103 21.2917 19.1033C21.2917 19.8963 20.9831 20.6417 20.4218 21.2027ZM18.3228 0.929727C19.9597 0.929727 21.2917 2.26179 21.2917 3.89864C21.2917 5.53548 19.9597 6.86754 18.3228 6.86754C16.686 6.86754 15.3539 5.53548 15.3539 3.89864C15.3539 2.26178 16.6856 0.929727 18.3228 0.929727ZM4.67758 14.4527C3.04074 14.4527 1.70867 13.1207 1.70867 11.4838C1.70867 9.84698 3.04074 8.51491 4.67758 8.51491C6.31443 8.51491 7.64649 9.84698 7.64649 11.4838C7.64649 13.1207 6.31443 14.4527 4.67758 14.4527Z" stroke="#223843" stroke-opacity="0.5" stroke-width="0.3"/>
</g>
<defs>
<clipPath id="clip0">
<rect width="23" height="23" fill="white"/>
</clipPath>
</defs>
</svg>
