<svg width="47" height="47" viewBox="0 0 47 47" fill="none" xmlns="http://www.w3.org/2000/svg">
<g clip-path="url(#clip0)">
<path d="M22.5843 8.06398H22.6343V8.01398V6.59407H23.9657V8.01398V8.06398H24.0157L46.55 8.06398V38.5365H24.0157H23.9657V38.5865V40.0064H22.6343V38.5865V38.5365H22.5843H0.05L0.05 8.06398H22.5843ZM1.38131 32.7841V32.8341H1.43131H10.9279H10.9779V32.7841L10.9779 13.8167V13.7667H10.9279H1.43131H1.38131V13.8167L1.38131 32.7841ZM12.3093 32.7841V32.8341H12.3593H22.5714H22.5843H22.6343V32.7841V24.016V23.966H22.5843H12.3593H12.3093V24.016L12.3093 32.7841ZM23.9657 32.7841V32.8341H24.0157H24.0286H34.2409H34.2909V32.7841V24.016V23.966H34.2409L24.0157 23.966H23.9657V24.016V32.7841ZM45.2189 34.2153V34.1653H45.1689H35.6722H24.0286H24.0157H23.9657V34.2153V37.1552V37.2052H24.0157H45.1689H45.2189V37.1552V34.2153ZM22.6344 34.2153V34.1653H22.5844H22.5715H10.9279H1.43131H1.38131V34.2153L1.38131 37.1552V37.2052H1.43131H22.5844H22.6344V37.1552V34.2153ZM45.1688 32.8341H45.2188V32.7841V13.8666V13.8166V13.8165L45.1688 13.8166V13.7666H35.6721H35.6221V13.8166V32.7841V32.8341H35.6721H45.1688ZM34.2909 13.8165V13.7665H34.2409L24.0286 13.7665H24.0157H23.9657V13.8165V22.5846V22.6346H24.0157L34.2409 22.6346H34.2909V22.5846V13.8165ZM22.6344 13.8165V13.7665H22.5844H22.5715H12.3593H12.3093V13.8165V22.5846V22.6346H12.3593H22.5843H22.5844H22.6344V22.5846V13.8165ZM45.2187 9.44529V9.39529H45.1687L24.0157 9.39529H23.9657V9.44529L23.9657 12.3852V12.4352H24.0157H24.0286L35.672 12.4352H45.1687H45.2187V12.3852V9.44529ZM22.6343 9.44529V9.39529H22.5843H1.43131H1.38131V9.44529V12.3852V12.4352H1.43131H10.9278H22.5714H22.5843H22.6343V12.3852L22.6343 9.44529Z" fill="#DD4F3C" fill-opacity="0.75" stroke="white" stroke-width="0.1"/>
</g>
<defs>
<clipPath id="clip0">
<rect width="46.6" height="46.6" fill="white" transform="translate(0 46.6001) rotate(-90)"/>
</clipPath>
</defs>
</svg>
